<?xml version="1.0" encoding="UTF-8"?>
<svg version="1.1" viewBox="0 0 2048 2048" width="1280" height="1280" xmlns="http://www.w3.org/2000/svg">
<path transform="translate(609,988)" d="m0 0h10l16 2 13 4 23 11 18 11 22 14 17 11 25 16 17 11 21 13 22 12 24 11 26 10 35 12 27 7 24 5 26 4 22 2h50l29-3 30-5 29-7 29-9 25-9 29-12 23-11 24-14 17-11 25-16 20-13 25-16 25-15 19-9 17-5 10-1h15l30 2 31 4 29 6 21 6 21 7 28 12 20 10 20 12 19 13 14 11 13 11 17 16 1 3h2l7 8 9 10 11 14 10 13 16 24 15 25 8 14 8 16 14 29 15 38 12 36 10 36 10 42 8 41 8 50 6 50 3 40 2 40 1 34v54l-2 30-5 34-6 26-9 28-8 20-11 23-10 17-11 16-8 11-12 14-11 12-10 10h-2v2l-11 9-16 13-21 14-19 11-22 11-28 11-31 9-34 7-30 5h-1082l-4-2-36-6-25-6-26-8-25-10-21-10-27-16-14-10-14-11-13-12-8-7-11-11-7-8-11-13-12-17-10-16-12-22-10-23-11-33-6-26-4-23-3-30-1-21v-33l1-44 3-57 5-52 7-49 8-45 9-42 9-35 12-40 12-33 11-26 14-30 12-22 16-27 8-12 12-17 9-12 9-11 12-14 25-25 11-9 15-12 15-10 16-10 24-13 20-9 27-10 27-8 24-5 26-4 20-2zm-10 122-23 2-27 5-25 7-15 6-15 7-19 10-16 11-11 9-10 9-17 17-11 14-10 13-9 13-11 18-12 22-12 24-13 32-12 36-7 24-12 51-9 50-4 26-4 32-3 33-3 60v78l3 28 6 28 8 24 11 23 12 18 8 10 11 12 8 8 11 9 11 8 13 8 19 10 24 9 22 6 24 4 34 3h1019l34-3 26-5 29-9 18-8 17-9 12-8 13-10 10-9 16-16 13-18 10-17 9-20 8-26 4-20 3-24 1-19v-32l-1-42-3-54-4-41-5-38-8-46-9-42-9-34-10-33-11-29-12-27-13-26-11-19-7-11-13-19-9-11-12-14-19-19-14-11-17-11-22-12-19-8-21-7-27-6-21-3-24-1-18 10-23 15-20 13-34 22-19 12-21 12-26 13-28 12-35 13-37 12-36 9-26 5-38 5-23 2h-61l-40-4-30-5-31-7-25-7-36-12-24-9-33-14-21-10-23-13-21-13-23-15-25-16-20-13-19-12-9-5z"/>
<path transform="translate(961)" d="m0 0h103v1l49 8 30 7 26 8 25 9 27 12 22 11 22 13 17 11 17 12 14 11 11 9 14 12 17 16 15 15v2h2l7 8 9 10 11 14 12 15 22 33 15 26 12 24 12 29 6 16 9 30 8 36 4 26 3 29 1 15v51l-3 36-5 34-7 32-9 30-9 25-12 28-9 17-6 11-10 18-10 15-12 17-14 18-9 11-10 11-7 8-30 30-11 9-11 10-20 15-15 11-22 14-16 9-14 8-26 12-20 8-20 7-27 8-27 6-36 6-30 3-20 1h-36l-31-2-32-4-36-7-32-9-29-10-28-12-28-14-22-13-21-14-14-10-16-13-11-9-10-9-8-7-30-30-9-11-10-11-10-13-11-15-12-18-8-13-12-21-13-26-11-27-12-36-7-28-5-26-4-29-2-23-1-23v-22l2-36 4-33 4-23 7-29 8-27 8-22 12-28 10-20 10-18 10-16 8-12 16-22 13-16 9-11 7-7 7-8 28-28 8-7 14-12 9-7 19-14 24-16 17-10 19-10 16-8 21-9 27-10 28-8 25-6 21-4zm39 120-33 2-24 3-29 6-27 8-26 10-25 12-17 10-24 16-14 11-11 9-12 11-10 9-11 11-7 8-9 10-8 10-14 19-10 15-9 15-8 16-10 22-8 22-7 25-5 25-3 19-2 25v50l3 30 5 29 7 27 9 26 12 27 12 22 14 22 10 13 11 14 10 11 7 8 23 23 8 7 11 9 17 13 21 14 25 14 19 9 26 10 28 8 24 5 28 4 30 2h23l31-2 35-5 26-6 33-11 23-10 20-10 21-13 12-8 17-13 13-11 20-18 13-13 7-8 11-13 8-10 12-17 11-17 14-26 9-20 10-28 8-31 5-29 2-21 1-17v-30l-2-29-3-23-6-29-8-28-11-28-10-21-16-27-11-16-14-18-12-14-16-17-9-9-8-7-10-9-14-11-18-13-21-13-27-14-23-10-24-8-24-6-27-5-31-3-23-1z"/>
</svg>
